<svg id="Layer_1" data-name="Layer 1" xmlns="http://www.w3.org/2000/svg" viewBox="0 0 822.506 720.926"><defs><style>.cls-1{fill:none;stroke:#000;stroke-miterlimit:10;stroke-width:28px;}</style></defs><path d="M223.506,358.133V720.926h-29.17V578.1q-17.189,26.125-38.574,39.306a87.46,87.46,0,0,1-46.778,13.184q-45.117,0-77.05-40.894T0,490.213q0-57.369,32.227-98.145T109.766,351.3a84.427,84.427,0,0,1,47.363,13.916q21.191,13.916,37.207,41.748V358.133ZM112.012,384.256q-22.824,0-42.139,14.023T39.145,437.666a131.3,131.3,0,0,0,.1,107.3q11.508,25.607,30.92,39.871T111.816,599.1q22.435,0,42.53-14.145t30.92-38.285q10.826-24.141,10.828-54.382,0-46.086-24.289-77.06T112.012,384.256Z"/><path d="M255.57,358.133h29.344v45.9q14.274-25.389,29.331-37.109Q334.972,351.3,357.851,351.3a60.426,60.426,0,0,1,29.328,7.568,65.536,65.536,0,0,1,22.683,20.142q8.8,12.577,15.253,36.011,13.637-31.248,34.1-47.486T503.249,351.3a59.286,59.286,0,0,1,38.873,13.916q16.856,13.916,25.037,38.818t8.185,74.707v145.02h-27.93V478.738q0-42.72-4.867-58.716T525.9,394.266q-11.778-9.762-28.128-9.766-19.858,0-36.306,14.648t-24.042,39.063q-7.59,24.415-7.59,81.543v104H402.492V487.771q0-48.093-4.785-65.307t-16.7-27.588a41.71,41.71,0,0,0-28.32-10.376q-18.948,0-35.45,14.282t-24.414,38.452q-7.91,24.171-7.91,73.975V623.758H255.57Z"/><polyline class="cls-1" points="208.506 308.304 208.506 14 808.506 14 808.506 614 652.506 614"/><rect x="547.506" y="600" width="57" height="28"/></svg>